<svg height="512" viewBox="0 0 64 64" width="512" xmlns="http://www.w3.org/2000/svg">
  <g id="Layer_69" data-name="Layer 69" fill='#fff'>
    <path d="m48.53 9a2 2 0 0 0 2-2v-3a2 2 0 0 0 -4 0v3a2 2 0 0 0 2 2z" />
    <path d="m48.53 23.67a2 2 0 0 0 2-2v-7.34a2 2 0 0 0 -4 0v7.34a2 2 0 0 0 2 2z" />
    <path d="m61.28 44.76a2 2 0 0 0 -2.81.25l-7.94 9.5v-25.51a2 2 0 0 0 -4 0v25.54l-8-9.44a2 2 0 0 0 -3 2.59l11.36 13.45a2 2 0 0 0 3.19.14l11.45-13.71a2 2 0 0 0 -.25-2.81z" />
    <path d="m15.47 55a2 2 0 0 0 -2 2v3a2 2 0 0 0 4 0v-3a2 2 0 0 0 -2-2z" />
    <path d="m15.47 40.33a2 2 0 0 0 -2 2v7.34a2 2 0 0 0 4 0v-7.34a2 2 0 0 0 -2-2z" />
    <path d="m17.11 2.86a2 2 0 0 0 -3.19-.14l-11.45 13.71a2 2 0 0 0 3.06 2.57l7.94-9.5v25.5a2 2 0 1 0 4 0v-25.53l8 9.43a2 2 0 0 0 3-2.59z" />
  </g>
</svg>