<svg width="1439" height="18" viewBox="0 0 1439 18" fill="none" xmlns="http://www.w3.org/2000/svg">
  <path d="M-1 38.5L33.2 34.3C67.55 29.95 135.95 21.55 204.5 14.05C273.05 6.55002 341.45 -0.049993 410 6.25C478.55 12.55 546.95 31.45 615.8 37.75C684.5 44.05 753.5 37.45 822.2 27.7C891.05 17.95 959.45 5.04998 1028 1.44999C1096.55 -2.00001 1164.95 4 1233.5 13C1302.05 22 1370.45 34 1404.8 40L1439 46V95.4999H1404.8C1370.45 95.4999 1302.05 95.4999 1233.5 95.4999C1164.95 95.4999 1096.55 95.4999 1028 95.4999C959.45 95.4999 891.05 95.4999 822.2 95.4999C753.5 95.4999 684.5 95.4999 615.8 95.4999C546.95 95.4999 478.55 95.4999 410 95.4999C341.45 95.4999 273.05 95.4999 204.5 95.4999C135.95 95.4999 67.55 95.4999 33.2 95.4999H-1V38.5Z" fill="#08121E" />
</svg>
  