<svg width="1439" height="117" viewBox="0 0 1439 117" fill="none" xmlns="http://www.w3.org/2000/svg">
  <path d="M-1 8.49991L33.2 15.6999C67.55 23.0499 135.95 37.4499 204.5 32.0499C273.05 26.4999 341.45 0.999894 410 0.699894C478.55 0.549894 546.95 25.4499 615.8 30.6999C684.5 35.9499 753.5 21.5499 822.2 22.4499C891.05 23.4999 959.45 39.9999 1028 42.2499C1096.55 44.4999 1164.95 32.4999 1233.5 24.9999C1302.05 17.4999 1370.45 14.4999 1404.8 12.9999L1439 11.4999V194.5H1404.8C1370.45 194.5 1302.05 194.5 1233.5 194.5C1164.95 194.5 1096.55 194.5 1028 194.5C959.45 194.5 891.05 194.5 822.2 194.5C753.5 194.5 684.5 194.5 615.8 194.5C546.95 194.5 478.55 194.5 410 194.5C341.45 194.5 273.05 194.5 204.5 194.5C135.95 194.5 67.55 194.5 33.2 194.5H-1V8.49991Z" fill="#111B27" />
</svg>
  