<svg width="1439" height="83" viewBox="0 0 1439 83" fill="none" xmlns="http://www.w3.org/2000/svg">
  <path d="M-1 0L33.2 5.55002C67.55 10.95 135.95 22.05 204.5 22.05C273.05 22.05 341.45 10.95 410 13.05C478.55 15 546.95 30 615.8 42.3C684.5 54.45 753.5 64.05 822.2 58.95C891.05 54 959.45 34.5 1028 25.8C1096.55 16.95 1164.95 19.05 1233.5 23.55C1302.05 28.05 1370.45 34.95 1404.8 38.55L1439 42V160.5H1404.8C1370.45 160.5 1302.05 160.5 1233.5 160.5C1164.95 160.5 1096.55 160.5 1028 160.5C959.45 160.5 891.05 160.5 822.2 160.5C753.5 160.5 684.5 160.5 615.8 160.5C546.95 160.5 478.55 160.5 410 160.5C341.45 160.5 273.05 160.5 204.5 160.5C135.95 160.5 67.55 160.5 33.2 160.5H-1V0Z" fill="#0D1722" />
</svg>
  