<svg width="1439" height="173" viewBox="0 0 1439 173" fill="none" xmlns="http://www.w3.org/2000/svg">
  <path d="M-1 10.4999L33.2 7.04996C67.55 3.44996 135.95 -3.45003 204.5 2.54996C273.05 8.54996 341.45 27.4499 410 31.1999C478.55 34.9499 546.95 23.5499 615.8 19.1999C684.5 14.9999 753.5 18 822.2 14.55C891.05 10.95 959.45 1.04995 1028 5.99995C1096.55 10.9499 1164.95 31.0499 1233.5 45.4499C1302.05 59.9999 1370.45 68.9999 1404.8 73.4999L1439 77.9999V250.5H1404.8C1370.45 250.5 1302.05 250.5 1233.5 250.5C1164.95 250.5 1096.55 250.5 1028 250.5C959.45 250.5 891.05 250.5 822.2 250.5C753.5 250.5 684.5 250.5 615.8 250.5C546.95 250.5 478.55 250.5 410 250.5C341.45 250.5 273.05 250.5 204.5 250.5C135.95 250.5 67.55 250.5 33.2 250.5H-1V10.4999Z" fill="#151F2C" />
</svg>
  