<svg width="1439" height="241" viewBox="0 0 1439 241" fill="none" xmlns="http://www.w3.org/2000/svg">
  <path d="M-1 94.9999L33.2 83.2999C67.55 71.4499 135.95 48.0499 204.5 45.9499C273.05 43.9999 341.45 63.4999 410 74.2999C478.55 84.9499 546.95 87.0499 615.8 73.2499C684.5 59.4499 753.5 30.0499 822.2 14.7499C891.05 -0.550078 959.45 -1.45006 1028 3.04994C1096.55 7.54994 1164.95 17.4499 1233.5 36.7999C1302.05 55.9999 1370.45 84.4999 1404.8 98.7499L1439 113V318.5H1404.8C1370.45 318.5 1302.05 318.5 1233.5 318.5C1164.95 318.5 1096.55 318.5 1028 318.5C959.45 318.5 891.05 318.5 822.2 318.5C753.5 318.5 684.5 318.5 615.8 318.5C546.95 318.5 478.55 318.5 410 318.5C341.45 318.5 273.05 318.5 204.5 318.5C135.95 318.5 67.55 318.5 33.2 318.5H-1V94.9999Z" fill="#192431" />
</svg>
  